<?xml version="1.0" encoding="utf-8"?>
<!-- Generator: Adobe Illustrator 19.0.0, SVG Export Plug-In . SVG Version: 6.00 Build 0)  -->
<svg version="1.1" id="Logo" xmlns="http://www.w3.org/2000/svg" xmlns:xlink="http://www.w3.org/1999/xlink" x="0px" y="0px"
	 viewBox="0 0 500 407.4" style="enable-background:new 0 0 500 407.4;" xml:space="preserve">
<style type="text/css">
	.st0{fill:#FFFFFF;}
</style>
<g id="XMLID_1_">
	<path id="C" class="st0" d="M170,208.2c23.8,0,44.2,10.5,57.6,22.6l-27.3,27.8c-9.3-7.3-17.4-11.5-29.7-11.5
		c-22.7,0-41.9,18.4-41.9,49.3c0,32,16.3,49.9,40.7,49.9c14.5,0,36.8,2.7,70.4-30.9l-9.9,44.6c-16,16.8-37.8,25.2-61.1,25.2
		c-49.4,0-91.3-28.9-91.3-87.1C77.5,240.7,121.1,208.2,170,208.2z"/>
	<path id="B" class="st0" d="M271.6,211.3h60.5c38.4,0,65.7,11.5,65.7,39.4c0,18.4-14.5,35.2-40.7,42.5l-0.6,1.1
		c21.5,4.7,32,15.2,32,31c0,40.9-39,56.7-83.2,56.7h-71.5L271.6,211.3z M308.8,349.9c23.3,0,34.9-8.9,34.9-23.1
		c0-12.6-8.1-18.9-25.6-18.9h-21.5l-9.3,42H308.8z M318.7,279.6c22.7,0,31.4-8.4,31.4-21.5c0-9.4-8.1-14.7-25.6-14.7h-13.4
		l-8.1,36.2H318.7z"/>
	<path id="N" class="st0" d="M219.9,31.7l0.2,114.4l-18-38.3l-41.9-76.1H77.6v170.6h74.1l-0.2-114.4l18,38.1l41.9,76.4h51.2V31.7
		H219.9z M152.9,59.3c-2.5,0-5.5-1.7-5.5-5.6c0-1.9,1.1-5,5-5.5c-3-2.5-7.1-2.8-8.5-2.8c-6,0-10.6,3.4-12.5,28l-2.5,33.4
		c-1.1,14.9-5.9,53.9-7.6,60.9c-3,12.1-9.4,23.7-22.1,23.7c-8,0-14.8-4.7-14.8-11.1c0-4,3-5.8,5.6-5.8c2.5,0,5.5,1.7,5.5,5.6
		c0,1.9-1.1,5-5,5.5c2.8,2.4,6.8,2.8,8.6,2.8c7.6,0,12.5-6,14.2-28l2.5-33.4c1.2-16.2,6-54.1,7.6-61.4c2.3-10.2,7.5-23.2,20.3-23.2
		c8,0,14.8,4.7,14.8,11.1C158.5,57.6,155.5,59.3,152.9,59.3z"/>
	<path id="XMLID_15_" class="st0" d="M291.3,173.7c-3.1,0-5.5,1.8-6.7,3.7c-1.5,2.3-1.9,5.4-1.9,8.1c0,1.9,0.1,5.3,1.6,7.8
		c1.5,2.4,3.8,3.8,6.3,3.8c2.3,0,5-1.1,6.8-3.7c0.9-1.2,0.9-1.4,0.9-2.4v-11.7c0-1.1,0-1.2-0.7-2.1
		C296,174.9,293.7,173.7,291.3,173.7z"/>
	<path id="D" class="st0" d="M327.4,31.7h-55.8v170.6h58.7c54.7,0,94.2-25.7,94.2-86.1C424.5,55.8,385,31.7,327.4,31.7z
		 M307.1,197.9l-8.8,0.6v-3.7c-1,1.2-3.7,3.7-7.9,3.7c-6.9,0-12.7-5.9-12.7-13.1c0-7.5,6.2-13.2,13.4-13.2c4.5,0,7.1,3.1,7.4,3.4
		v-12.4c0-2.8-0.5-3.3-4.5-3.3v-1.8l8.6-0.6v35.3c0,2.8,0.5,3.3,4.5,3.3V197.9z M339.5,197.9c-2.3-0.2-5.7-0.2-5.7-0.2
		c-2.5,0-3.9,0.1-6.3,0.2v-1.8c1.4-0.1,2-0.8,2-1.5c0-0.3,0-0.5-1.1-1.7l-4.6-5.9c-1.5,1.7-3,3.5-4.4,5.3c-0.9,1-0.9,1.9-0.9,2
		c0,0.6,0.2,1.6,1.6,1.7v1.8c-1.9-0.1-3.7-0.2-5.6-0.2c-1.7,0-3.3,0-4.9,0.2v-1.8c1.2,0,4.5-0.1,7.4-3.6l5.6-6.8l-6-7.5
		c-2.7-3.4-2.8-3.5-6.8-3.5v-1.8c2.3,0.2,5.7,0.2,5.7,0.2c2.6,0,4.1-0.1,6.3-0.2v1.8c-1.3,0.1-2,0.8-2,1.5c0,0.4,0.1,0.5,0.5,1
		l4.5,5.8l3.7-4.6c0.3-0.3,0.8-1,0.8-1.9c0-1.2-0.8-1.6-1.6-1.7v-1.8c2.3,0.2,3.4,0.2,5.6,0.2c1.7,0,3.3,0,4.9-0.2v1.8
		c-3.5,0.1-5.5,1.5-7.3,3.4c-0.5,0.5-5,6.1-5,6.1s0,0.1,0.4,0.6l7.6,9.6c1.3,1.6,3,1.6,5.3,1.6V197.9z M324.5,166h-2.9V67.9h2.9
		c27.3,0,48.8,8.4,48.8,48.3C373.4,156.1,351.8,166,324.5,166z"/>
	<path id="Accolade_Droite" class="st0" d="M496.6,208.6c-21.5,0-37.2,22.4-37.2,46v101.9c0,29.7-26,50.9-56.1,50.9
		c-2,0-3.4-2-3.4-4.9c0-2.9,1.4-4.9,3.4-4.9c21.5,0,37.2-20,37.2-41.1V254.6c0-23.6,13.7-42.4,32.9-50.9
		c-19.2-8.6-32.9-27.3-32.9-50.9V50.9c0-21.2-15.7-41.2-37.2-41.2c-2,0-3.4-2-3.4-4.9s1.4-4.9,3.4-4.9c30,0,56.1,21.2,56.1,50.9
		v101.9c0,23.6,15.7,46,37.2,46c2,0,3.4,2,3.4,4.9C500,206.6,498.6,208.6,496.6,208.6z"/>
	<path id="Accolade_Gauche" class="st0" d="M59.5,152.8c0,23.6-13.7,42.4-32.9,50.9c19.2,8.6,32.9,27.3,32.9,50.9v101.9
		c0,21.2,15.7,41.1,37.2,41.1c2,0,3.4,2,3.4,4.9c0,2.9-1.4,4.9-3.4,4.9c-30,0-56.1-21.2-56.1-50.9V254.6c0-23.6-15.7-46-37.2-46
		c-2,0-3.4-2-3.4-4.9c0-2.9,1.4-4.9,3.4-4.9c21.5,0,37.2-22.4,37.2-46V50.9C40.6,21.2,66.7,0,96.7,0c2,0,3.4,2,3.4,4.9
		s-1.4,4.9-3.4,4.9c-21.5,0-37.2,20-37.2,41.2"/>
</g>
</svg>
