<?xml version="1.0" encoding="utf-8"?>
<!-- Generator: Adobe Illustrator 19.0.0, SVG Export Plug-In . SVG Version: 6.00 Build 0)  -->
<svg version="1.1" id="_x34_04" xmlns="http://www.w3.org/2000/svg" xmlns:xlink="http://www.w3.org/1999/xlink" x="0px" y="0px"
	 viewBox="0 0 500 270.7" style="enable-background:new 0 0 500 270.7;" xml:space="preserve">
<style type="text/css">
	.st0{fill:#FFFFFF;}
</style>
<path id="Accolade_Droite" class="st0" d="M497.7,138.6c-14.3,0-24.7,14.9-24.7,30.6v67.7c0,19.8-17.3,33.8-37.3,33.8
	c-1.3,0-2.3-1.4-2.3-3.2c0-1.9,1-3.3,2.3-3.3c14.3,0,24.7-13.3,24.7-27.3v-67.7c0-15.7,9.1-28.2,21.9-33.8
	c-12.7-5.7-21.9-18.1-21.9-33.8V33.8c0-14.1-10.5-27.3-24.7-27.3c-1.3,0-2.3-1.4-2.3-3.2s1-3.3,2.3-3.3c20,0,37.3,14.1,37.3,33.8
	v67.7c0,15.7,10.5,30.6,24.7,30.6c1.3,0,2.3,1.4,2.3,3.3S499,138.6,497.7,138.6z"/>
<path id="Accolade_Gauche" class="st0" d="M39.6,101.5c0,15.7-9.1,28.2-21.9,33.8c12.7,5.7,21.9,18.1,21.9,33.8v67.7
	c0,14.1,10.5,27.3,24.7,27.3c1.3,0,2.3,1.4,2.3,3.3c0,1.9-1,3.2-2.3,3.2c-20,0-37.3-14.1-37.3-33.8v-67.7
	c0-15.7-10.5-30.6-24.7-30.6c-1.3,0-2.3-1.4-2.3-3.2s1-3.3,2.3-3.3c14.3,0,24.7-14.9,24.7-30.6V33.8C27,14.1,44.3,0,64.3,0
	c1.3,0,2.3,1.4,2.3,3.3s-1,3.2-2.3,3.2C50,6.5,39.6,19.8,39.6,33.8"/>
<g id="_x34_04_1_">
	<path id="_x34__1_" class="st0" d="M133.6,214.3c-8.8,0-33.2,0-40.3,0.5v-10.6h26.8v-28H50.3v-10.6l84.5-108.9
		c2.9-3.7,3.4-3.7,7.9-3.7c6.1,0,6.4,1,6.4,7.1v105.4H173v10.6h-23.8v28H173v10.6C166.3,214.3,142,214.3,133.6,214.3z M122.3,87.5
		l-60.7,78.1h60.7V87.5z"/>
	<path id="_x30_" class="st0" d="M249.9,217.7c-58,0-58-57.8-58-81.3c0-23.8,0-82.8,58.2-82.8c58,0,58,59.2,58,82.8
		C308.1,160.7,307.9,217.7,249.9,217.7z M276.4,86c-3.4-20.6-18.7-24.3-26.5-24.3c-5.4,0-23.1,1.7-26.5,26c-2,12.8-2,28.5-2,45.7
		c0,57.7,3.9,61.7,10.1,67.8c4.9,5.2,10.8,8.4,18.7,8.4c5.9,0,12.5-2.5,17.4-7.4c7.4-7.4,11.1-10.8,11.1-68.8
		C278.6,118.4,278.6,98.5,276.4,86z"/>
	<path id="_x34_" class="st0" d="M410.3,214.3c-8.8,0-33.2,0-40.3,0.5v-10.6h26.8v-28H327v-10.6l84.5-108.9c2.9-3.7,3.4-3.7,7.9-3.7
		c6.1,0,6.4,1,6.4,7.1v105.4h23.8v10.6h-23.8v28h23.8v10.6C443,214.3,418.7,214.3,410.3,214.3z M399,87.5l-60.7,78.1H399V87.5z"/>
</g>
</svg>
