<?xml version="1.0" encoding="utf-8"?>
<!-- Generator: Adobe Illustrator 19.0.0, SVG Export Plug-In . SVG Version: 6.00 Build 0)  -->
<svg version="1.1" id="Logo" xmlns="http://www.w3.org/2000/svg" xmlns:xlink="http://www.w3.org/1999/xlink" x="0px" y="0px"
	 viewBox="0 0 600 600" style="enable-background:new 0 0 600 600;" xml:space="preserve">
<style type="text/css">
	.st0{fill:#35495E;}
	.st1{fill:#FFFFFF;}
</style>
<rect id="XMLID_2_" x="0.2" y="-0.2" transform="matrix(-1 7.778479e-004 -7.778479e-004 -1 601.5666 599.7661)" class="st0" width="600.9" height="600.5"/>
<path id="Accolade_Droite" class="st1" d="M575.3,305.4c-24,0-41.5,25-41.5,51.4v113.7c0,33.2-29.1,56.8-62.6,56.8
	c-2.2,0-3.8-2.3-3.8-5.5s1.6-5.5,3.8-5.5c24,0,41.5-22.3,41.5-45.9V356.8c0-26.4,15.3-47.3,36.7-56.8c-21.4-9.6-36.7-30.5-36.7-56.9
	V129.4c0-23.7-17.6-45.9-41.5-45.9c-2.2,0-3.8-2.3-3.8-5.5c0-3.2,1.6-5.5,3.8-5.5c33.5,0,62.6,23.7,62.6,56.9v113.7
	c0,26.4,17.6,51.4,41.5,51.4c2.2,0,3.8,2.3,3.8,5.5S577.6,305.4,575.3,305.4z"/>
<path id="Accolade_Gauche" class="st1" d="M87.4,243.1c0,26.4-15.3,47.3-36.7,56.9c21.4,9.5,36.7,30.5,36.7,56.8v113.7
	c0,23.6,17.6,45.9,41.5,45.9c2.2,0,3.8,2.3,3.8,5.5s-1.6,5.5-3.8,5.5c-33.5,0-62.6-23.6-62.6-56.8V356.8c0-26.4-17.6-51.4-41.5-51.4
	c-2.2,0-3.8-2.3-3.8-5.5s1.6-5.5,3.8-5.5c24,0,41.5-25,41.5-51.4V129.4c0-33.2,29.1-56.9,62.6-56.9c2.2,0,3.8,2.3,3.8,5.5
	c0,3.2-1.6,5.5-3.8,5.5c-24,0-41.5,22.3-41.5,45.9"/>
<g id="XMLID_1_">
	<path id="XMLID_12_" class="st1" d="M407.5,427.2c-4.3,0-7.6,2.5-9.4,5.1c-2.1,3.3-2.6,7.6-2.6,11.4c0,2.6,0.2,7.4,2.3,10.9
		c2.1,3.4,5.4,5.4,8.9,5.4c3.3,0,7-1.5,9.5-5.2c1.2-1.7,1.2-2,1.2-3.4V435c0-1.5,0-1.6-1-2.9C414.2,428.9,410.9,427.2,407.5,427.2z"
		/>
	<path id="XMLID_21_" class="st1" d="M397.8,132.6l0.3,224.6L362.8,282l-82.2-149.4H118.5v334.9h145.5l-0.5-224.6l35.4,74.7
		l82.2,149.9h100.4V132.6H397.8z M266.3,186.9c-5,0-10.8-3.4-10.8-11.1c0-3.7,2.1-9.7,9.7-10.8c-5.8-5-14-5.5-16.6-5.5
		c-11.9,0-20.8,6.6-24.5,55l-5,65.6c-2.1,29.2-11.6,105.9-15,119.6c-5.8,23.7-18.4,46.6-43.5,46.6c-15.8,0-29-9.2-29-21.9
		c0-7.9,5.8-11.3,11.1-11.3c5,0,10.8,3.4,10.8,11.1c0,3.7-2.1,9.7-9.7,10.8c5.5,4.7,13.4,5.5,16.9,5.5c15,0,24.5-11.9,27.9-55
		l5-65.6c2.4-31.9,11.9-106.1,15-120.6c4.5-20,14.7-45.6,39.8-45.6c15.8,0,29,9.2,29,21.9C277.4,183.5,271.6,186.9,266.3,186.9z
		 M429.6,461.2l-12.3,0.9v-5.2c-1.5,1.7-5.1,5.2-11.1,5.2c-9.7,0-17.8-8.2-17.8-18.4c0-10.5,8.7-18.5,18.7-18.5
		c6.3,0,10,4.3,10.4,4.8v-17.3c0-4-0.7-4.6-6.3-4.6v-2.5l12-0.9v49.4c0,4,0.7,4.6,6.3,4.6V461.2z M475.1,461.2c-3.2-0.2-8-0.2-8-0.2
		c-3.5,0-5.5,0.1-8.9,0.2v-2.5c2-0.1,2.8-1.1,2.8-2c0-0.5,0-0.7-1.5-2.4l-6.4-8.2c-2,2.4-4.1,4.9-6.1,7.4c-1.2,1.5-1.2,2.6-1.2,2.8
		c0,0.8,0.2,2.2,2.3,2.4v2.5c-2.6-0.2-5.2-0.2-7.8-0.2c-2.4,0-4.6,0-6.9,0.2v-2.5c1.7,0,6.3-0.2,10.4-5l7.9-9.5l-8.4-10.5
		c-3.7-4.8-3.9-5-9.5-5v-2.5c3.2,0.2,8,0.2,8,0.2c3.7,0,5.8-0.1,8.9-0.2v2.5c-1.9,0.1-2.8,1.1-2.8,2c0,0.6,0.2,0.7,0.7,1.5l6.3,8.1
		l5.2-6.4c0.4-0.5,1.1-1.4,1.1-2.7c0-1.6-1.1-2.3-2.3-2.4v-2.5c3.3,0.2,4.7,0.2,7.8,0.2c2.4,0,4.6,0,6.9-0.2v2.5
		c-5,0.1-7.7,2-10.2,4.8c-0.7,0.7-7,8.5-7,8.5s0,0.2,0.6,0.9l10.7,13.5c1.8,2.3,4.2,2.3,7.5,2.3V461.2z"/>
</g>
</svg>
