<svg xmlns="http://www.w3.org/2000/svg" width="406" height="406"><rect x="0" y="0" width="100%" height="100%" fill="rgb(52,73,94)"></rect><rect x="0" y="11" width="100%" height="5" opacity="0.02" fill="#ddd"></rect><rect x="0" y="32" width="100%" height="13" opacity="0.08933333333333333" fill="#ddd"></rect><rect x="0" y="51" width="100%" height="5" opacity="0.02" fill="#ddd"></rect><rect x="0" y="63" width="100%" height="16" opacity="0.11533333333333334" fill="#222"></rect><rect x="0" y="97" width="100%" height="5" opacity="0.02" fill="#ddd"></rect><rect x="0" y="109" width="100%" height="5" opacity="0.02" fill="#ddd"></rect><rect x="0" y="133" width="100%" height="14" opacity="0.098" fill="#222"></rect><rect x="0" y="161" width="100%" height="19" opacity="0.14133333333333334" fill="#ddd"></rect><rect x="0" y="188" width="100%" height="8" opacity="0.046" fill="#222"></rect><rect x="0" y="206" width="100%" height="12" opacity="0.08066666666666666" fill="#222"></rect><rect x="0" y="235" width="100%" height="8" opacity="0.046" fill="#222"></rect><rect x="0" y="261" width="100%" height="11" opacity="0.07200000000000001" fill="#ddd"></rect><rect x="0" y="277" width="100%" height="12" opacity="0.08066666666666666" fill="#222"></rect><rect x="0" y="303" width="100%" height="18" opacity="0.13266666666666665" fill="#222"></rect><rect x="0" y="332" width="100%" height="19" opacity="0.14133333333333334" fill="#ddd"></rect><rect x="0" y="357" width="100%" height="9" opacity="0.05466666666666667" fill="#ddd"></rect><rect x="0" y="373" width="100%" height="6" opacity="0.028666666666666667" fill="#222"></rect><rect x="0" y="396" width="100%" height="10" opacity="0.06333333333333334" fill="#222"></rect><rect x="11" y="0" width="5" height="100%" opacity="0.02" fill="#ddd"></rect><rect x="32" y="0" width="13" height="100%" opacity="0.08933333333333333" fill="#ddd"></rect><rect x="51" y="0" width="5" height="100%" opacity="0.02" fill="#ddd"></rect><rect x="63" y="0" width="16" height="100%" opacity="0.11533333333333334" fill="#222"></rect><rect x="97" y="0" width="5" height="100%" opacity="0.02" fill="#ddd"></rect><rect x="109" y="0" width="5" height="100%" opacity="0.02" fill="#ddd"></rect><rect x="133" y="0" width="14" height="100%" opacity="0.098" fill="#222"></rect><rect x="161" y="0" width="19" height="100%" opacity="0.14133333333333334" fill="#ddd"></rect><rect x="188" y="0" width="8" height="100%" opacity="0.046" fill="#222"></rect><rect x="206" y="0" width="12" height="100%" opacity="0.08066666666666666" fill="#222"></rect><rect x="235" y="0" width="8" height="100%" opacity="0.046" fill="#222"></rect><rect x="261" y="0" width="11" height="100%" opacity="0.07200000000000001" fill="#ddd"></rect><rect x="277" y="0" width="12" height="100%" opacity="0.08066666666666666" fill="#222"></rect><rect x="303" y="0" width="18" height="100%" opacity="0.13266666666666665" fill="#222"></rect><rect x="332" y="0" width="19" height="100%" opacity="0.14133333333333334" fill="#ddd"></rect><rect x="357" y="0" width="9" height="100%" opacity="0.05466666666666667" fill="#ddd"></rect><rect x="373" y="0" width="6" height="100%" opacity="0.028666666666666667" fill="#222"></rect><rect x="396" y="0" width="10" height="100%" opacity="0.06333333333333334" fill="#222"></rect></svg>