<svg xmlns="http://www.w3.org/2000/svg" width="300" height="468"><rect x="0" y="0" width="100%" height="100%" fill="rgb(26,188,156)"></rect><path d="M0 44 C 52.5 0, 97.5 0, 150 44 S 247.5 88, 300 44 S 397.5 0, 450, 44" fill="none" stroke="#ddd" opacity="0.10666666666666667" stroke-width="13px" transform="translate(-75,-66)"></path><path d="M0 44 C 52.5 0, 97.5 0, 150 44 S 247.5 88, 300 44 S 397.5 0, 450, 44" fill="none" stroke="#ddd" opacity="0.10666666666666667" stroke-width="13px" transform="translate(-75,402)"></path><path d="M0 44 C 52.5 0, 97.5 0, 150 44 S 247.5 88, 300 44 S 397.5 0, 450, 44" fill="none" stroke="#222" opacity="0.046" stroke-width="13px" transform="translate(-75,-53)"></path><path d="M0 44 C 52.5 0, 97.5 0, 150 44 S 247.5 88, 300 44 S 397.5 0, 450, 44" fill="none" stroke="#222" opacity="0.046" stroke-width="13px" transform="translate(-75,415)"></path><path d="M0 44 C 52.5 0, 97.5 0, 150 44 S 247.5 88, 300 44 S 397.5 0, 450, 44" fill="none" stroke="#ddd" opacity="0.07200000000000001" stroke-width="13px" transform="translate(-75,-40)"></path><path d="M0 44 C 52.5 0, 97.5 0, 150 44 S 247.5 88, 300 44 S 397.5 0, 450, 44" fill="none" stroke="#ddd" opacity="0.07200000000000001" stroke-width="13px" transform="translate(-75,428)"></path><path d="M0 44 C 52.5 0, 97.5 0, 150 44 S 247.5 88, 300 44 S 397.5 0, 450, 44" fill="none" stroke="#222" opacity="0.13266666666666665" stroke-width="13px" transform="translate(-75,-27)"></path><path d="M0 44 C 52.5 0, 97.5 0, 150 44 S 247.5 88, 300 44 S 397.5 0, 450, 44" fill="none" stroke="#222" opacity="0.13266666666666665" stroke-width="13px" transform="translate(-75,441)"></path><path d="M0 44 C 52.5 0, 97.5 0, 150 44 S 247.5 88, 300 44 S 397.5 0, 450, 44" fill="none" stroke="#ddd" opacity="0.03733333333333333" stroke-width="13px" transform="translate(-75,-14)"></path><path d="M0 44 C 52.5 0, 97.5 0, 150 44 S 247.5 88, 300 44 S 397.5 0, 450, 44" fill="none" stroke="#ddd" opacity="0.03733333333333333" stroke-width="13px" transform="translate(-75,454)"></path><path d="M0 44 C 52.5 0, 97.5 0, 150 44 S 247.5 88, 300 44 S 397.5 0, 450, 44" fill="none" stroke="#222" opacity="0.098" stroke-width="13px" transform="translate(-75,-1)"></path><path d="M0 44 C 52.5 0, 97.5 0, 150 44 S 247.5 88, 300 44 S 397.5 0, 450, 44" fill="none" stroke="#222" opacity="0.098" stroke-width="13px" transform="translate(-75,467)"></path><path d="M0 44 C 52.5 0, 97.5 0, 150 44 S 247.5 88, 300 44 S 397.5 0, 450, 44" fill="none" stroke="#ddd" opacity="0.12400000000000001" stroke-width="13px" transform="translate(-75,12)"></path><path d="M0 44 C 52.5 0, 97.5 0, 150 44 S 247.5 88, 300 44 S 397.5 0, 450, 44" fill="none" stroke="#ddd" opacity="0.12400000000000001" stroke-width="13px" transform="translate(-75,480)"></path><path d="M0 44 C 52.5 0, 97.5 0, 150 44 S 247.5 88, 300 44 S 397.5 0, 450, 44" fill="none" stroke="#222" opacity="0.06333333333333334" stroke-width="13px" transform="translate(-75,25)"></path><path d="M0 44 C 52.5 0, 97.5 0, 150 44 S 247.5 88, 300 44 S 397.5 0, 450, 44" fill="none" stroke="#222" opacity="0.06333333333333334" stroke-width="13px" transform="translate(-75,493)"></path><path d="M0 44 C 52.5 0, 97.5 0, 150 44 S 247.5 88, 300 44 S 397.5 0, 450, 44" fill="none" stroke="#222" opacity="0.08066666666666666" stroke-width="13px" transform="translate(-75,38)"></path><path d="M0 44 C 52.5 0, 97.5 0, 150 44 S 247.5 88, 300 44 S 397.5 0, 450, 44" fill="none" stroke="#222" opacity="0.08066666666666666" stroke-width="13px" transform="translate(-75,506)"></path><path d="M0 44 C 52.5 0, 97.5 0, 150 44 S 247.5 88, 300 44 S 397.5 0, 450, 44" fill="none" stroke="#222" opacity="0.06333333333333334" stroke-width="13px" transform="translate(-75,51)"></path><path d="M0 44 C 52.5 0, 97.5 0, 150 44 S 247.5 88, 300 44 S 397.5 0, 450, 44" fill="none" stroke="#222" opacity="0.06333333333333334" stroke-width="13px" transform="translate(-75,519)"></path><path d="M0 44 C 52.5 0, 97.5 0, 150 44 S 247.5 88, 300 44 S 397.5 0, 450, 44" fill="none" stroke="#222" opacity="0.11533333333333334" stroke-width="13px" transform="translate(-75,64)"></path><path d="M0 44 C 52.5 0, 97.5 0, 150 44 S 247.5 88, 300 44 S 397.5 0, 450, 44" fill="none" stroke="#222" opacity="0.11533333333333334" stroke-width="13px" transform="translate(-75,532)"></path><path d="M0 44 C 52.5 0, 97.5 0, 150 44 S 247.5 88, 300 44 S 397.5 0, 450, 44" fill="none" stroke="#222" opacity="0.15" stroke-width="13px" transform="translate(-75,77)"></path><path d="M0 44 C 52.5 0, 97.5 0, 150 44 S 247.5 88, 300 44 S 397.5 0, 450, 44" fill="none" stroke="#222" opacity="0.15" stroke-width="13px" transform="translate(-75,545)"></path><path d="M0 44 C 52.5 0, 97.5 0, 150 44 S 247.5 88, 300 44 S 397.5 0, 450, 44" fill="none" stroke="#222" opacity="0.028666666666666667" stroke-width="13px" transform="translate(-75,90)"></path><path d="M0 44 C 52.5 0, 97.5 0, 150 44 S 247.5 88, 300 44 S 397.5 0, 450, 44" fill="none" stroke="#222" opacity="0.028666666666666667" stroke-width="13px" transform="translate(-75,558)"></path><path d="M0 44 C 52.5 0, 97.5 0, 150 44 S 247.5 88, 300 44 S 397.5 0, 450, 44" fill="none" stroke="#ddd" opacity="0.07200000000000001" stroke-width="13px" transform="translate(-75,103)"></path><path d="M0 44 C 52.5 0, 97.5 0, 150 44 S 247.5 88, 300 44 S 397.5 0, 450, 44" fill="none" stroke="#ddd" opacity="0.07200000000000001" stroke-width="13px" transform="translate(-75,571)"></path><path d="M0 44 C 52.5 0, 97.5 0, 150 44 S 247.5 88, 300 44 S 397.5 0, 450, 44" fill="none" stroke="#222" opacity="0.028666666666666667" stroke-width="13px" transform="translate(-75,116)"></path><path d="M0 44 C 52.5 0, 97.5 0, 150 44 S 247.5 88, 300 44 S 397.5 0, 450, 44" fill="none" stroke="#222" opacity="0.028666666666666667" stroke-width="13px" transform="translate(-75,584)"></path><path d="M0 44 C 52.5 0, 97.5 0, 150 44 S 247.5 88, 300 44 S 397.5 0, 450, 44" fill="none" stroke="#222" opacity="0.098" stroke-width="13px" transform="translate(-75,129)"></path><path d="M0 44 C 52.5 0, 97.5 0, 150 44 S 247.5 88, 300 44 S 397.5 0, 450, 44" fill="none" stroke="#222" opacity="0.098" stroke-width="13px" transform="translate(-75,597)"></path><path d="M0 44 C 52.5 0, 97.5 0, 150 44 S 247.5 88, 300 44 S 397.5 0, 450, 44" fill="none" stroke="#ddd" opacity="0.10666666666666667" stroke-width="13px" transform="translate(-75,142)"></path><path d="M0 44 C 52.5 0, 97.5 0, 150 44 S 247.5 88, 300 44 S 397.5 0, 450, 44" fill="none" stroke="#ddd" opacity="0.10666666666666667" stroke-width="13px" transform="translate(-75,610)"></path><path d="M0 44 C 52.5 0, 97.5 0, 150 44 S 247.5 88, 300 44 S 397.5 0, 450, 44" fill="none" stroke="#ddd" opacity="0.08933333333333333" stroke-width="13px" transform="translate(-75,155)"></path><path d="M0 44 C 52.5 0, 97.5 0, 150 44 S 247.5 88, 300 44 S 397.5 0, 450, 44" fill="none" stroke="#ddd" opacity="0.08933333333333333" stroke-width="13px" transform="translate(-75,623)"></path><path d="M0 44 C 52.5 0, 97.5 0, 150 44 S 247.5 88, 300 44 S 397.5 0, 450, 44" fill="none" stroke="#222" opacity="0.13266666666666665" stroke-width="13px" transform="translate(-75,168)"></path><path d="M0 44 C 52.5 0, 97.5 0, 150 44 S 247.5 88, 300 44 S 397.5 0, 450, 44" fill="none" stroke="#222" opacity="0.13266666666666665" stroke-width="13px" transform="translate(-75,636)"></path><path d="M0 44 C 52.5 0, 97.5 0, 150 44 S 247.5 88, 300 44 S 397.5 0, 450, 44" fill="none" stroke="#ddd" opacity="0.10666666666666667" stroke-width="13px" transform="translate(-75,181)"></path><path d="M0 44 C 52.5 0, 97.5 0, 150 44 S 247.5 88, 300 44 S 397.5 0, 450, 44" fill="none" stroke="#ddd" opacity="0.10666666666666667" stroke-width="13px" transform="translate(-75,649)"></path><path d="M0 44 C 52.5 0, 97.5 0, 150 44 S 247.5 88, 300 44 S 397.5 0, 450, 44" fill="none" stroke="#ddd" opacity="0.14133333333333334" stroke-width="13px" transform="translate(-75,194)"></path><path d="M0 44 C 52.5 0, 97.5 0, 150 44 S 247.5 88, 300 44 S 397.5 0, 450, 44" fill="none" stroke="#ddd" opacity="0.14133333333333334" stroke-width="13px" transform="translate(-75,662)"></path><path d="M0 44 C 52.5 0, 97.5 0, 150 44 S 247.5 88, 300 44 S 397.5 0, 450, 44" fill="none" stroke="#222" opacity="0.046" stroke-width="13px" transform="translate(-75,207)"></path><path d="M0 44 C 52.5 0, 97.5 0, 150 44 S 247.5 88, 300 44 S 397.5 0, 450, 44" fill="none" stroke="#222" opacity="0.046" stroke-width="13px" transform="translate(-75,675)"></path><path d="M0 44 C 52.5 0, 97.5 0, 150 44 S 247.5 88, 300 44 S 397.5 0, 450, 44" fill="none" stroke="#222" opacity="0.046" stroke-width="13px" transform="translate(-75,220)"></path><path d="M0 44 C 52.5 0, 97.5 0, 150 44 S 247.5 88, 300 44 S 397.5 0, 450, 44" fill="none" stroke="#222" opacity="0.046" stroke-width="13px" transform="translate(-75,688)"></path><path d="M0 44 C 52.5 0, 97.5 0, 150 44 S 247.5 88, 300 44 S 397.5 0, 450, 44" fill="none" stroke="#222" opacity="0.046" stroke-width="13px" transform="translate(-75,233)"></path><path d="M0 44 C 52.5 0, 97.5 0, 150 44 S 247.5 88, 300 44 S 397.5 0, 450, 44" fill="none" stroke="#222" opacity="0.046" stroke-width="13px" transform="translate(-75,701)"></path><path d="M0 44 C 52.5 0, 97.5 0, 150 44 S 247.5 88, 300 44 S 397.5 0, 450, 44" fill="none" stroke="#222" opacity="0.098" stroke-width="13px" transform="translate(-75,246)"></path><path d="M0 44 C 52.5 0, 97.5 0, 150 44 S 247.5 88, 300 44 S 397.5 0, 450, 44" fill="none" stroke="#222" opacity="0.098" stroke-width="13px" transform="translate(-75,714)"></path><path d="M0 44 C 52.5 0, 97.5 0, 150 44 S 247.5 88, 300 44 S 397.5 0, 450, 44" fill="none" stroke="#ddd" opacity="0.02" stroke-width="13px" transform="translate(-75,259)"></path><path d="M0 44 C 52.5 0, 97.5 0, 150 44 S 247.5 88, 300 44 S 397.5 0, 450, 44" fill="none" stroke="#ddd" opacity="0.02" stroke-width="13px" transform="translate(-75,727)"></path><path d="M0 44 C 52.5 0, 97.5 0, 150 44 S 247.5 88, 300 44 S 397.5 0, 450, 44" fill="none" stroke="#ddd" opacity="0.03733333333333333" stroke-width="13px" transform="translate(-75,272)"></path><path d="M0 44 C 52.5 0, 97.5 0, 150 44 S 247.5 88, 300 44 S 397.5 0, 450, 44" fill="none" stroke="#ddd" opacity="0.03733333333333333" stroke-width="13px" transform="translate(-75,740)"></path><path d="M0 44 C 52.5 0, 97.5 0, 150 44 S 247.5 88, 300 44 S 397.5 0, 450, 44" fill="none" stroke="#ddd" opacity="0.02" stroke-width="13px" transform="translate(-75,285)"></path><path d="M0 44 C 52.5 0, 97.5 0, 150 44 S 247.5 88, 300 44 S 397.5 0, 450, 44" fill="none" stroke="#ddd" opacity="0.02" stroke-width="13px" transform="translate(-75,753)"></path><path d="M0 44 C 52.5 0, 97.5 0, 150 44 S 247.5 88, 300 44 S 397.5 0, 450, 44" fill="none" stroke="#ddd" opacity="0.07200000000000001" stroke-width="13px" transform="translate(-75,298)"></path><path d="M0 44 C 52.5 0, 97.5 0, 150 44 S 247.5 88, 300 44 S 397.5 0, 450, 44" fill="none" stroke="#ddd" opacity="0.07200000000000001" stroke-width="13px" transform="translate(-75,766)"></path><path d="M0 44 C 52.5 0, 97.5 0, 150 44 S 247.5 88, 300 44 S 397.5 0, 450, 44" fill="none" stroke="#ddd" opacity="0.14133333333333334" stroke-width="13px" transform="translate(-75,311)"></path><path d="M0 44 C 52.5 0, 97.5 0, 150 44 S 247.5 88, 300 44 S 397.5 0, 450, 44" fill="none" stroke="#ddd" opacity="0.14133333333333334" stroke-width="13px" transform="translate(-75,779)"></path><path d="M0 44 C 52.5 0, 97.5 0, 150 44 S 247.5 88, 300 44 S 397.5 0, 450, 44" fill="none" stroke="#222" opacity="0.11533333333333334" stroke-width="13px" transform="translate(-75,324)"></path><path d="M0 44 C 52.5 0, 97.5 0, 150 44 S 247.5 88, 300 44 S 397.5 0, 450, 44" fill="none" stroke="#222" opacity="0.11533333333333334" stroke-width="13px" transform="translate(-75,792)"></path><path d="M0 44 C 52.5 0, 97.5 0, 150 44 S 247.5 88, 300 44 S 397.5 0, 450, 44" fill="none" stroke="#222" opacity="0.15" stroke-width="13px" transform="translate(-75,337)"></path><path d="M0 44 C 52.5 0, 97.5 0, 150 44 S 247.5 88, 300 44 S 397.5 0, 450, 44" fill="none" stroke="#222" opacity="0.15" stroke-width="13px" transform="translate(-75,805)"></path><path d="M0 44 C 52.5 0, 97.5 0, 150 44 S 247.5 88, 300 44 S 397.5 0, 450, 44" fill="none" stroke="#222" opacity="0.13266666666666665" stroke-width="13px" transform="translate(-75,350)"></path><path d="M0 44 C 52.5 0, 97.5 0, 150 44 S 247.5 88, 300 44 S 397.5 0, 450, 44" fill="none" stroke="#222" opacity="0.13266666666666665" stroke-width="13px" transform="translate(-75,818)"></path><path d="M0 44 C 52.5 0, 97.5 0, 150 44 S 247.5 88, 300 44 S 397.5 0, 450, 44" fill="none" stroke="#222" opacity="0.11533333333333334" stroke-width="13px" transform="translate(-75,363)"></path><path d="M0 44 C 52.5 0, 97.5 0, 150 44 S 247.5 88, 300 44 S 397.5 0, 450, 44" fill="none" stroke="#222" opacity="0.11533333333333334" stroke-width="13px" transform="translate(-75,831)"></path><path d="M0 44 C 52.5 0, 97.5 0, 150 44 S 247.5 88, 300 44 S 397.5 0, 450, 44" fill="none" stroke="#ddd" opacity="0.02" stroke-width="13px" transform="translate(-75,376)"></path><path d="M0 44 C 52.5 0, 97.5 0, 150 44 S 247.5 88, 300 44 S 397.5 0, 450, 44" fill="none" stroke="#ddd" opacity="0.02" stroke-width="13px" transform="translate(-75,844)"></path><path d="M0 44 C 52.5 0, 97.5 0, 150 44 S 247.5 88, 300 44 S 397.5 0, 450, 44" fill="none" stroke="#ddd" opacity="0.14133333333333334" stroke-width="13px" transform="translate(-75,389)"></path><path d="M0 44 C 52.5 0, 97.5 0, 150 44 S 247.5 88, 300 44 S 397.5 0, 450, 44" fill="none" stroke="#ddd" opacity="0.14133333333333334" stroke-width="13px" transform="translate(-75,857)"></path></svg>