<svg xmlns="http://www.w3.org/2000/svg" width="252" height="117"><rect x="0" y="0" width="100%" height="100%" fill="rgb(149,165,166)"></rect><polyline points="21,0,42,19.666666666666664,21,39.33333333333333,0,19.666666666666664" fill="#ddd" fill-opacity="0.12400000000000001" stroke="#000" stroke-opacity="0.02" transform="translate(-21,-19.666666666666664)"></polyline><polyline points="21,0,42,19.666666666666664,21,39.33333333333333,0,19.666666666666664" fill="#ddd" fill-opacity="0.12400000000000001" stroke="#000" stroke-opacity="0.02" transform="translate(231,-19.666666666666664)"></polyline><polyline points="21,0,42,19.666666666666664,21,39.33333333333333,0,19.666666666666664" fill="#ddd" fill-opacity="0.12400000000000001" stroke="#000" stroke-opacity="0.02" transform="translate(-21,98.33333333333331)"></polyline><polyline points="21,0,42,19.666666666666664,21,39.33333333333333,0,19.666666666666664" fill="#ddd" fill-opacity="0.12400000000000001" stroke="#000" stroke-opacity="0.02" transform="translate(231,98.33333333333331)"></polyline><polyline points="21,0,42,19.666666666666664,21,39.33333333333333,0,19.666666666666664" fill="#222" fill-opacity="0.11533333333333334" stroke="#000" stroke-opacity="0.02" transform="translate(21,-19.666666666666664)"></polyline><polyline points="21,0,42,19.666666666666664,21,39.33333333333333,0,19.666666666666664" fill="#222" fill-opacity="0.11533333333333334" stroke="#000" stroke-opacity="0.02" transform="translate(21,98.33333333333331)"></polyline><polyline points="21,0,42,19.666666666666664,21,39.33333333333333,0,19.666666666666664" fill="#222" fill-opacity="0.046" stroke="#000" stroke-opacity="0.02" transform="translate(63,-19.666666666666664)"></polyline><polyline points="21,0,42,19.666666666666664,21,39.33333333333333,0,19.666666666666664" fill="#222" fill-opacity="0.046" stroke="#000" stroke-opacity="0.02" transform="translate(63,98.33333333333331)"></polyline><polyline points="21,0,42,19.666666666666664,21,39.33333333333333,0,19.666666666666664" fill="#ddd" fill-opacity="0.02" stroke="#000" stroke-opacity="0.02" transform="translate(105,-19.666666666666664)"></polyline><polyline points="21,0,42,19.666666666666664,21,39.33333333333333,0,19.666666666666664" fill="#ddd" fill-opacity="0.02" stroke="#000" stroke-opacity="0.02" transform="translate(105,98.33333333333331)"></polyline><polyline points="21,0,42,19.666666666666664,21,39.33333333333333,0,19.666666666666664" fill="#222" fill-opacity="0.11533333333333334" stroke="#000" stroke-opacity="0.02" transform="translate(147,-19.666666666666664)"></polyline><polyline points="21,0,42,19.666666666666664,21,39.33333333333333,0,19.666666666666664" fill="#222" fill-opacity="0.11533333333333334" stroke="#000" stroke-opacity="0.02" transform="translate(147,98.33333333333331)"></polyline><polyline points="21,0,42,19.666666666666664,21,39.33333333333333,0,19.666666666666664" fill="#ddd" fill-opacity="0.08933333333333333" stroke="#000" stroke-opacity="0.02" transform="translate(189,-19.666666666666664)"></polyline><polyline points="21,0,42,19.666666666666664,21,39.33333333333333,0,19.666666666666664" fill="#ddd" fill-opacity="0.08933333333333333" stroke="#000" stroke-opacity="0.02" transform="translate(189,98.33333333333331)"></polyline><polyline points="21,0,42,19.666666666666664,21,39.33333333333333,0,19.666666666666664" fill="#ddd" fill-opacity="0.05466666666666667" stroke="#000" stroke-opacity="0.02" transform="translate(0,0)"></polyline><polyline points="21,0,42,19.666666666666664,21,39.33333333333333,0,19.666666666666664" fill="#ddd" fill-opacity="0.05466666666666667" stroke="#000" stroke-opacity="0.02" transform="translate(252,0)"></polyline><polyline points="21,0,42,19.666666666666664,21,39.33333333333333,0,19.666666666666664" fill="#ddd" fill-opacity="0.05466666666666667" stroke="#000" stroke-opacity="0.02" transform="translate(42,0)"></polyline><polyline points="21,0,42,19.666666666666664,21,39.33333333333333,0,19.666666666666664" fill="#222" fill-opacity="0.08066666666666666" stroke="#000" stroke-opacity="0.02" transform="translate(84,0)"></polyline><polyline points="21,0,42,19.666666666666664,21,39.33333333333333,0,19.666666666666664" fill="#ddd" fill-opacity="0.14133333333333334" stroke="#000" stroke-opacity="0.02" transform="translate(126,0)"></polyline><polyline points="21,0,42,19.666666666666664,21,39.33333333333333,0,19.666666666666664" fill="#222" fill-opacity="0.028666666666666667" stroke="#000" stroke-opacity="0.02" transform="translate(168,0)"></polyline><polyline points="21,0,42,19.666666666666664,21,39.33333333333333,0,19.666666666666664" fill="#ddd" fill-opacity="0.05466666666666667" stroke="#000" stroke-opacity="0.02" transform="translate(210,0)"></polyline><polyline points="21,0,42,19.666666666666664,21,39.33333333333333,0,19.666666666666664" fill="#222" fill-opacity="0.08066666666666666" stroke="#000" stroke-opacity="0.02" transform="translate(-21,19.666666666666664)"></polyline><polyline points="21,0,42,19.666666666666664,21,39.33333333333333,0,19.666666666666664" fill="#222" fill-opacity="0.08066666666666666" stroke="#000" stroke-opacity="0.02" transform="translate(231,19.666666666666664)"></polyline><polyline points="21,0,42,19.666666666666664,21,39.33333333333333,0,19.666666666666664" fill="#222" fill-opacity="0.098" stroke="#000" stroke-opacity="0.02" transform="translate(21,19.666666666666664)"></polyline><polyline points="21,0,42,19.666666666666664,21,39.33333333333333,0,19.666666666666664" fill="#ddd" fill-opacity="0.07200000000000001" stroke="#000" stroke-opacity="0.02" transform="translate(63,19.666666666666664)"></polyline><polyline points="21,0,42,19.666666666666664,21,39.33333333333333,0,19.666666666666664" fill="#222" fill-opacity="0.028666666666666667" stroke="#000" stroke-opacity="0.02" transform="translate(105,19.666666666666664)"></polyline><polyline points="21,0,42,19.666666666666664,21,39.33333333333333,0,19.666666666666664" fill="#ddd" fill-opacity="0.14133333333333334" stroke="#000" stroke-opacity="0.02" transform="translate(147,19.666666666666664)"></polyline><polyline points="21,0,42,19.666666666666664,21,39.33333333333333,0,19.666666666666664" fill="#222" fill-opacity="0.11533333333333334" stroke="#000" stroke-opacity="0.02" transform="translate(189,19.666666666666664)"></polyline><polyline points="21,0,42,19.666666666666664,21,39.33333333333333,0,19.666666666666664" fill="#ddd" fill-opacity="0.08933333333333333" stroke="#000" stroke-opacity="0.02" transform="translate(0,39.33333333333333)"></polyline><polyline points="21,0,42,19.666666666666664,21,39.33333333333333,0,19.666666666666664" fill="#ddd" fill-opacity="0.08933333333333333" stroke="#000" stroke-opacity="0.02" transform="translate(252,39.33333333333333)"></polyline><polyline points="21,0,42,19.666666666666664,21,39.33333333333333,0,19.666666666666664" fill="#ddd" fill-opacity="0.12400000000000001" stroke="#000" stroke-opacity="0.02" transform="translate(42,39.33333333333333)"></polyline><polyline points="21,0,42,19.666666666666664,21,39.33333333333333,0,19.666666666666664" fill="#ddd" fill-opacity="0.08933333333333333" stroke="#000" stroke-opacity="0.02" transform="translate(84,39.33333333333333)"></polyline><polyline points="21,0,42,19.666666666666664,21,39.33333333333333,0,19.666666666666664" fill="#222" fill-opacity="0.046" stroke="#000" stroke-opacity="0.02" transform="translate(126,39.33333333333333)"></polyline><polyline points="21,0,42,19.666666666666664,21,39.33333333333333,0,19.666666666666664" fill="#222" fill-opacity="0.098" stroke="#000" stroke-opacity="0.02" transform="translate(168,39.33333333333333)"></polyline><polyline points="21,0,42,19.666666666666664,21,39.33333333333333,0,19.666666666666664" fill="#222" fill-opacity="0.13266666666666665" stroke="#000" stroke-opacity="0.02" transform="translate(210,39.33333333333333)"></polyline><polyline points="21,0,42,19.666666666666664,21,39.33333333333333,0,19.666666666666664" fill="#ddd" fill-opacity="0.12400000000000001" stroke="#000" stroke-opacity="0.02" transform="translate(-21,58.99999999999999)"></polyline><polyline points="21,0,42,19.666666666666664,21,39.33333333333333,0,19.666666666666664" fill="#ddd" fill-opacity="0.12400000000000001" stroke="#000" stroke-opacity="0.02" transform="translate(231,58.99999999999999)"></polyline><polyline points="21,0,42,19.666666666666664,21,39.33333333333333,0,19.666666666666664" fill="#222" fill-opacity="0.06333333333333334" stroke="#000" stroke-opacity="0.02" transform="translate(21,58.99999999999999)"></polyline><polyline points="21,0,42,19.666666666666664,21,39.33333333333333,0,19.666666666666664" fill="#222" fill-opacity="0.11533333333333334" stroke="#000" stroke-opacity="0.02" transform="translate(63,58.99999999999999)"></polyline><polyline points="21,0,42,19.666666666666664,21,39.33333333333333,0,19.666666666666664" fill="#222" fill-opacity="0.15" stroke="#000" stroke-opacity="0.02" transform="translate(105,58.99999999999999)"></polyline><polyline points="21,0,42,19.666666666666664,21,39.33333333333333,0,19.666666666666664" fill="#222" fill-opacity="0.15" stroke="#000" stroke-opacity="0.02" transform="translate(147,58.99999999999999)"></polyline><polyline points="21,0,42,19.666666666666664,21,39.33333333333333,0,19.666666666666664" fill="#ddd" fill-opacity="0.10666666666666667" stroke="#000" stroke-opacity="0.02" transform="translate(189,58.99999999999999)"></polyline><polyline points="21,0,42,19.666666666666664,21,39.33333333333333,0,19.666666666666664" fill="#ddd" fill-opacity="0.07200000000000001" stroke="#000" stroke-opacity="0.02" transform="translate(0,78.66666666666666)"></polyline><polyline points="21,0,42,19.666666666666664,21,39.33333333333333,0,19.666666666666664" fill="#ddd" fill-opacity="0.07200000000000001" stroke="#000" stroke-opacity="0.02" transform="translate(252,78.66666666666666)"></polyline><polyline points="21,0,42,19.666666666666664,21,39.33333333333333,0,19.666666666666664" fill="#222" fill-opacity="0.08066666666666666" stroke="#000" stroke-opacity="0.02" transform="translate(42,78.66666666666666)"></polyline><polyline points="21,0,42,19.666666666666664,21,39.33333333333333,0,19.666666666666664" fill="#ddd" fill-opacity="0.12400000000000001" stroke="#000" stroke-opacity="0.02" transform="translate(84,78.66666666666666)"></polyline><polyline points="21,0,42,19.666666666666664,21,39.33333333333333,0,19.666666666666664" fill="#ddd" fill-opacity="0.14133333333333334" stroke="#000" stroke-opacity="0.02" transform="translate(126,78.66666666666666)"></polyline><polyline points="21,0,42,19.666666666666664,21,39.33333333333333,0,19.666666666666664" fill="#222" fill-opacity="0.13266666666666665" stroke="#000" stroke-opacity="0.02" transform="translate(168,78.66666666666666)"></polyline><polyline points="21,0,42,19.666666666666664,21,39.33333333333333,0,19.666666666666664" fill="#222" fill-opacity="0.06333333333333334" stroke="#000" stroke-opacity="0.02" transform="translate(210,78.66666666666666)"></polyline></svg>